<svg width="45" height="41" viewBox="0 0 45 41" fill="none" xmlns="http://www.w3.org/2000/svg">
<path fill-rule="evenodd" clip-rule="evenodd" d="M5 20.1122C5 30.0564 12.2222 38.3245 21.6667 40.0005L21.7778 39.9111C21.7405 39.9038 21.7033 39.8965 21.666 39.889V25.699H16.666V20.1124H21.666V15.6432C21.666 10.6152 24.8882 7.82194 29.4438 7.82194C30.8882 7.82194 32.4438 8.0454 33.8882 8.26886V13.4085H31.3327C28.8882 13.4085 28.3327 14.6376 28.3327 16.2018V20.1124H33.666L32.7771 25.699H28.3327V39.889C28.2958 39.8964 28.2589 39.9037 28.2219 39.9109L28.3333 40.0005C37.7778 38.3245 45 30.0564 45 20.1122C45 9.05077 36 0.000488281 25 0.000488281C14 0.000488281 5 9.05077 5 20.1122Z" fill="#FFFAF6"/>
</svg>
