<svg width="40" height="41" viewBox="0 0 40 41" fill="none" xmlns="http://www.w3.org/2000/svg">
<g clip-path="url(#clip0)">
<path d="M20.0019 0.000488281C14.5702 0.000488281 13.8885 0.0242396 11.7551 0.121327C9.62593 0.218831 8.17259 0.555928 6.90091 1.05053C5.58547 1.56139 4.46963 2.24475 3.35795 3.35687C2.24544 4.46859 1.5621 5.58446 1.04959 6.89952C0.553755 8.17165 0.216252 9.62546 0.120418 11.7539C0.0250001 13.8873 0 14.5694 0 20.0013C0 25.4332 0.0241673 26.1128 0.120835 28.2462C0.218753 30.3755 0.555839 31.8289 1.05001 33.1006C1.56127 34.416 2.24461 35.5319 3.3567 36.6436C4.46796 37.7562 5.58381 38.4412 6.89841 38.9521C8.17092 39.4467 9.62468 39.7838 11.7535 39.8813C13.8868 39.9784 14.5681 40.0021 19.9994 40.0021C25.4315 40.0021 26.1111 39.9784 28.2445 39.8813C30.3737 39.7838 31.8287 39.4467 33.1012 38.9521C34.4162 38.4412 35.5304 37.7562 36.6416 36.6436C37.7541 35.5319 38.4375 34.416 38.95 33.101C39.4417 31.8289 39.7792 30.3751 39.8792 28.2466C39.975 26.1132 40 25.4332 40 20.0013C40 14.5694 39.975 13.8877 39.8792 11.7543C39.7792 9.62504 39.4417 8.17165 38.95 6.89993C38.4375 5.58446 37.7541 4.46859 36.6416 3.35687C35.5291 2.24433 34.4166 1.56097 33.0999 1.05053C31.8249 0.555928 30.3707 0.218831 28.2415 0.121327C26.1082 0.0242396 25.429 0.000488281 19.9956 0.000488281H20.0019ZM18.2077 3.6048C18.7402 3.60397 19.3344 3.6048 20.0019 3.6048C25.3419 3.6048 25.9749 3.62397 28.0836 3.71981C30.0336 3.80898 31.092 4.13482 31.797 4.40858C32.7303 4.7711 33.3958 5.20445 34.0954 5.90448C34.7954 6.60451 35.2287 7.2712 35.592 8.20457C35.8658 8.90877 36.192 9.96714 36.2808 11.9172C36.3766 14.0256 36.3975 14.659 36.3975 19.9967C36.3975 25.3344 36.3766 25.9678 36.2808 28.0762C36.1916 30.0263 35.8658 31.0847 35.592 31.7889C35.2295 32.7222 34.7954 33.3868 34.0954 34.0865C33.3953 34.7865 32.7308 35.2198 31.797 35.5823C31.0928 35.8574 30.0336 36.1824 28.0836 36.2715C25.9753 36.3674 25.3419 36.3882 20.0019 36.3882C14.6614 36.3882 14.0285 36.3674 11.9201 36.2715C9.9701 36.1815 8.91176 35.8557 8.20634 35.5819C7.27299 35.2194 6.60632 34.7861 5.90631 34.086C5.2063 33.386 4.77297 32.721 4.40963 31.7872C4.13588 31.083 3.80962 30.0246 3.72087 28.0745C3.62504 25.9661 3.60587 25.3328 3.60587 19.9917C3.60587 14.6507 3.62504 14.0206 3.72087 11.9122C3.81004 9.96214 4.13588 8.90377 4.40963 8.19874C4.77213 7.26537 5.2063 6.59867 5.90631 5.89864C6.60632 5.19862 7.27299 4.76526 8.20634 4.40192C8.91134 4.12691 9.9701 3.80189 11.9201 3.71231C13.7651 3.62897 14.4802 3.60397 18.2077 3.5998V3.6048ZM30.6778 6.92577C29.3528 6.92577 28.2778 7.99956 28.2778 9.32503C28.2778 10.6501 29.3528 11.7251 30.6778 11.7251C32.0028 11.7251 33.0778 10.6501 33.0778 9.32503C33.0778 7.99998 32.0028 6.92494 30.6778 6.92494V6.92577ZM20.0019 9.73005C14.3297 9.73005 9.73094 14.329 9.73094 20.0013C9.73094 25.6736 14.3297 30.2705 20.0019 30.2705C25.674 30.2705 30.2711 25.6736 30.2711 20.0013C30.2711 14.329 25.6736 9.73005 20.0015 9.73005H20.0019ZM20.0019 13.3344C23.6836 13.3344 26.6686 16.3191 26.6686 20.0013C26.6686 23.6831 23.6836 26.6682 20.0019 26.6682C16.3198 26.6682 13.3351 23.6831 13.3351 20.0013C13.3351 16.3191 16.3198 13.3344 20.0019 13.3344Z" fill="#FFFAF6"/>
</g>
<defs>
<clipPath id="clip0">
<rect width="40" height="40" fill="white" transform="translate(0 0.00146484)"/>
</clipPath>
</defs>
</svg>
