<svg width="40" height="40" viewBox="0 0 40 40" fill="none" xmlns="http://www.w3.org/2000/svg">
<path fill-rule="evenodd" clip-rule="evenodd" d="M0 20.1122C0 30.0564 7.22222 38.3245 16.6667 40.0005L16.7778 39.9111C16.7405 39.9038 16.7033 39.8965 16.666 39.889V25.699H11.666V20.1124H16.666V15.6432C16.666 10.6152 19.8882 7.82194 24.4438 7.82194C25.8882 7.82194 27.4438 8.0454 28.8882 8.26886V13.4085H26.3327C23.8882 13.4085 23.3327 14.6376 23.3327 16.2018V20.1124H28.666L27.7771 25.699H23.3327V39.889C23.2958 39.8964 23.2589 39.9037 23.2219 39.9109L23.3333 40.0005C32.7778 38.3245 40 30.0564 40 20.1122C40 9.05077 31 0.000488281 20 0.000488281C9 0.000488281 0 9.05077 0 20.1122Z" fill="#FFFAF6"/>
</svg>
