<svg width="40" height="40" viewBox="0 0 40 40" fill="none" xmlns="http://www.w3.org/2000/svg">
<path d="M4.85297 9.71883C7.5332 9.71883 9.70595 7.5433 9.70595 4.85966C9.70595 2.17601 7.5332 0.000488281 4.85297 0.000488281C2.17275 0.000488281 0 2.17601 0 4.85966C0 7.5433 2.17275 9.71883 4.85297 9.71883Z" fill="#FFFAF6"/>
<path d="M14.1504 13.3099H22.1934V16.9991C22.1934 16.9991 24.3759 12.6284 30.3144 12.6284C35.6117 12.6284 40 15.2413 40 23.2058V40.0005H31.6652V25.2408C31.6652 20.5426 29.1601 20.0258 27.2512 20.0258C23.2896 20.0258 22.6114 23.4473 22.6114 25.8537V40.0005H14.1504V13.3099Z" fill="#FFFAF6"/>
<path d="M0.622513 13.3099H9.08344V40.0005H0.622513V13.3099Z" fill="#FFFAF6"/>
</svg>
