<svg width="33" height="41" viewBox="0 0 33 41" fill="none" xmlns="http://www.w3.org/2000/svg">
<path d="M0 14.3584C0 12.6787 0.366351 11.0111 1.10322 9.35944C1.84008 7.7078 2.89334 6.17213 4.26716 4.76044C5.64097 3.34874 7.44358 2.20099 9.67916 1.32118C11.9147 0.44137 14.3918 0.00146484 17.1103 0.00146484C21.5231 0.00146484 25.145 1.30918 27.9759 3.92062C30.8068 6.53205 32.2222 9.61139 32.2222 13.1586C32.2222 17.7176 31.0233 21.4848 28.6212 24.4562C26.2191 27.4275 23.1176 28.9152 19.3167 28.9152C18.0678 28.9152 16.8938 28.6353 15.7989 28.0754C14.704 27.5155 13.9338 26.8357 13.4884 26.0358L11.8231 32.3545C11.6858 32.8624 11.5026 33.3743 11.2819 33.8941C11.0613 34.414 10.8157 34.9139 10.5534 35.3938C10.2911 35.8737 10.0247 36.3256 9.76242 36.7535C9.50014 37.1814 9.23371 37.5813 8.97143 37.9533C8.70916 38.3252 8.48019 38.6411 8.28453 38.8931C8.08886 39.145 7.90985 39.365 7.74333 39.5529L7.49354 39.8728C7.41028 39.9808 7.29788 40.0208 7.16049 39.9928C7.02311 39.9648 6.93985 39.8848 6.91071 39.7529C6.91071 39.7249 6.88989 39.5409 6.84826 39.193C6.80663 38.8451 6.765 38.4811 6.72337 38.0932C6.68174 37.7053 6.64011 37.2054 6.59848 36.5936C6.55685 35.9817 6.54436 35.3858 6.55685 34.8139C6.56934 34.2421 6.61097 33.6062 6.68174 32.9144C6.75251 32.2225 6.85659 31.5826 6.99397 30.9948C7.29788 29.743 8.32616 25.5679 10.0746 18.4775C9.85401 18.0496 9.67083 17.5377 9.53345 16.9378C9.39607 16.3379 9.3253 15.85 9.3253 15.4781L9.28367 14.8783C9.28367 13.1706 9.73328 11.7509 10.6367 10.6192C11.5401 9.48742 12.6266 8.91954 13.9047 8.91954C14.933 8.91954 15.7281 9.24747 16.2985 9.89933C16.8688 10.5512 17.1519 11.371 17.1519 12.3588C17.1519 12.9707 17.0353 13.7265 16.798 14.6183C16.5607 15.5101 16.2485 16.5379 15.8613 17.6976C15.4742 18.8574 15.1952 19.7972 15.0287 20.517C14.7498 21.7168 14.9954 22.7565 15.7573 23.6364C16.5191 24.5162 17.539 24.9561 18.8171 24.9561C21.0111 24.9561 22.822 23.7643 24.2499 21.3768C25.6779 18.9894 26.3939 16.106 26.3939 12.7187C26.3939 10.1313 25.5197 8.01973 23.7712 6.38009C22.0227 4.74044 19.579 3.92062 16.4442 3.92062C12.9472 3.92062 10.108 5.00038 7.93066 7.15992C5.75337 9.31945 4.66265 11.9069 4.66265 14.9182C4.66265 16.7059 5.19136 18.2095 6.24462 19.4373C6.60681 19.8372 6.71505 20.2651 6.57766 20.717C6.52354 20.849 6.44028 21.1569 6.32788 21.6368C6.21548 22.1167 6.13221 22.4246 6.07809 22.5566C6.02397 22.8485 5.88243 23.0445 5.66179 23.1365C5.44114 23.2284 5.19136 23.2244 4.91243 23.1165C3.27634 22.4766 2.04823 21.3768 1.22811 19.8172C0.407982 18.2575 0 16.4379 0 14.3584Z" fill="#FFFAF6"/>
</svg>
