<svg width="207" height="70" viewBox="0 0 207 70" fill="none" xmlns="http://www.w3.org/2000/svg">
<path d="M206.5 35C206.5 39.8524 206.494 44.3585 204.916 48.4434C203.352 52.4929 200.22 56.1778 193.843 59.2997C187.447 62.4306 177.808 64.9847 163.276 66.7532C148.749 68.5209 129.365 69.5 103.5 69.5C77.635 69.5 58.251 68.5209 43.7243 66.7532C29.1915 64.9847 19.5525 62.4306 13.1572 59.2997C6.78039 56.1778 3.64749 52.4929 2.08357 48.4434C0.505956 44.3585 0.5 39.8524 0.5 35C0.5 26.3748 3.34833 19.9487 8.47594 15.13C13.6219 10.294 21.1031 7.04009 30.4282 4.86189C49.0887 0.50307 74.8957 0.5 103.5 0.5C132.104 0.5 157.911 0.50307 176.572 4.86189C185.897 7.04009 193.378 10.294 198.524 15.13C203.652 19.9487 206.5 26.3748 206.5 35Z" stroke="#385A38"/>
</svg>
