<svg width="193" height="70" viewBox="0 0 193 70" fill="none" xmlns="http://www.w3.org/2000/svg">
<path d="M192.5 35C192.5 39.8515 192.495 44.3637 191.022 48.4542C189.562 52.5092 186.64 56.1896 180.705 59.3061C174.75 62.4329 165.771 64.9858 152.224 66.7537C138.684 68.5209 120.614 69.5 96.5 69.5C72.3858 69.5 54.3159 68.5209 40.7755 66.7537C27.2291 64.9858 18.2498 62.4329 12.2948 59.3061C6.35972 56.1896 3.43836 52.5092 1.9782 48.4542C0.5053 44.3637 0.5 39.8515 0.5 35C0.5 26.3639 3.16011 19.9339 7.93839 15.1178C12.7314 10.2868 19.6984 7.03643 28.3857 4.86001C45.7749 0.503503 69.8271 0.5 96.5 0.5C123.173 0.5 147.225 0.503503 164.614 4.86001C173.302 7.03643 180.269 10.2868 185.062 15.1178C189.84 19.9339 192.5 26.3639 192.5 35Z" fill="#385A38" stroke="#385A38"/>
</svg>
