<svg width="58" height="42" viewBox="0 0 58 42" fill="none" xmlns="http://www.w3.org/2000/svg">
<g opacity="0.3">
<path d="M30.303 23.266C30.025 34.7571 35.5847 42.276 45.0362 41.9922C52.8198 41.8504 58.5185 36.3176 57.9626 28.3731C57.5456 20.5705 51.4299 16.0308 43.0903 16.7402C41.1444 16.882 39.3375 17.3076 37.9476 18.0169C37.6696 9.22127 41.9784 3.97224 44.6193 2.12798L42.1174 0C35.0288 3.26291 30.303 12.9098 30.303 23.266ZM0.0026091 23.266C-0.136383 34.7571 5.28433 42.276 14.7358 41.9922C22.6584 41.8504 28.3571 36.3176 27.8011 28.3731C27.2452 20.5705 21.1295 16.0308 12.7899 16.7402C10.844 16.882 9.03713 17.3076 7.64721 18.0169C7.50821 9.22127 11.817 3.97224 14.4578 2.12798L11.956 0C4.86735 3.26291 0.0026091 12.9098 0.0026091 23.266Z" fill="#FFFAF6"/>
<path d="M30.303 23.266C30.025 34.7571 35.5847 42.276 45.0362 41.9922C52.8198 41.8504 58.5185 36.3176 57.9626 28.3731C57.5456 20.5705 51.4299 16.0308 43.0903 16.7402C41.1444 16.882 39.3375 17.3076 37.9476 18.0169C37.6696 9.22127 41.9784 3.97224 44.6193 2.12798L42.1174 0C35.0288 3.26291 30.303 12.9098 30.303 23.266ZM0.0026091 23.266C-0.136383 34.7571 5.28433 42.276 14.7358 41.9922C22.6584 41.8504 28.3571 36.3176 27.8011 28.3731C27.2452 20.5705 21.1295 16.0308 12.7899 16.7402C10.844 16.882 9.03713 17.3076 7.64721 18.0169C7.50821 9.22127 11.817 3.97224 14.4578 2.12798L11.956 0C4.86735 3.26291 0.0026091 12.9098 0.0026091 23.266Z" stroke="#FFFAF6"/>
</g>
</svg>
